<?xml version="1.0" encoding="UTF-8"?>
<svg xmlns="http://www.w3.org/2000/svg" version="1.1" viewBox="0 0 30 30">
<path fill="black" d="M2.61,19.56c0-.85.2-1.64.59-2.38s.94-1.35,1.65-1.84V5.42c0-.8.27-1.48.82-2.03s1.23-.84,2.03-.84,1.49.28,2.04.83c.55.56.83,1.23.83,2.03v9.92c.71.49,1.25,1.11,1.64,1.84s.58,1.53.58,2.38c0,.92-.23,1.78-.68,2.56s-1.07,1.4-1.85,1.85-1.63.68-2.56.68-1.77-.23-2.55-.68-1.4-1.07-1.86-1.85-.68-1.63-.68-2.55ZM4.37,19.56c0,.93.33,1.73.98,2.39s1.44.99,2.36.99,1.73-.33,2.4-1,1.01-1.46,1.01-2.37c0-.62-.16-1.2-.48-1.73-.32-.53-.76-.94-1.32-1.23l-.28-.14c-.1-.04-.15-.14-.15-.29V5.42c0-.32-.11-.59-.34-.81-.23-.21-.51-.32-.85-.32-.32,0-.6.11-.83.32s-.34.48-.34.81v10.74c0,.15-.05.25-.14.29l-.27.14c-.55.29-.98.7-1.29,1.23-.31.53-.46,1.1-.46,1.74ZM5.15,19.56c0,.71.24,1.32.73,1.82s1.07.75,1.76.75,1.28-.25,1.79-.75c.51-.5.76-1.11.76-1.81,0-.63-.22-1.19-.65-1.67s-.96-.77-1.58-.85v-7.36c0-.06-.03-.13-.1-.19-.07-.07-.14-.1-.22-.1-.09,0-.16.03-.21.08-.05.06-.08.12-.08.21v7.34c-.61.09-1.13.37-1.56.85-.43.49-.64,1.04-.64,1.68ZM11.88,9.63c0-.86.27-1.62.81-2.3s1.22-1.1,2.04-1.29c.23-1.02.76-1.85,1.57-2.51s1.76-.98,2.81-.98,1.94.32,2.75.95c.8.64,1.33,1.45,1.58,2.45h.23c.67,0,1.29.16,1.85.49s1.02.77,1.35,1.33c.33.56.5,1.18.5,1.85,0,1-.34,1.86-1.03,2.58s-1.53,1.1-2.53,1.13c-.1,0-.15-.04-.15-.13v-.99c0-.09.05-.13.15-.13.64-.03,1.18-.28,1.63-.76s.67-1.04.67-1.69-.24-1.21-.73-1.69c-.49-.48-1.06-.72-1.73-.72h-1.2c-.09,0-.14-.04-.14-.13l-.05-.43c-.08-.8-.43-1.48-1.03-2.03-.61-.55-1.32-.82-2.13-.82s-1.53.27-2.14.82c-.61.55-.95,1.22-1.03,2.03l-.04.4c0,.09-.05.13-.15.13l-.4.02c-.61.03-1.13.28-1.56.75s-.64,1.02-.64,1.66.22,1.21.67,1.69.99.73,1.63.76c.08,0,.13.04.13.13v.99c0,.08-.04.13-.13.13-1-.04-1.85-.43-2.54-1.14s-1.02-1.56-1.02-2.55ZM16.32,10.28c0-.18.09-.43.28-.74.18-.31.35-.56.51-.76.16-.18.25-.28.28-.31l.27.3c.19.21.37.46.54.76.16.3.25.55.25.75,0,.29-.1.54-.3.73-.2.19-.45.29-.75.29s-.55-.1-.76-.3c-.22-.19-.32-.44-.32-.73ZM18.55,13.27c0-.21.06-.44.18-.72s.26-.52.44-.76c.13-.19.3-.4.5-.63.19-.22.34-.39.45-.49.05-.04.11-.1.18-.17l.18.17c.28.25.6.61.95,1.09.18.25.32.51.44.78s.17.51.17.73c0,.48-.17.89-.51,1.23s-.76.51-1.24.51-.89-.17-1.23-.5c-.34-.34-.51-.76-.51-1.24ZM19.65,8.29c0-.31.24-.71.73-1.2l.18.19c.13.16.25.34.36.53.1.19.16.35.16.48,0,.19-.07.36-.21.49-.13.13-.3.21-.49.21s-.37-.07-.52-.21c-.14-.13-.21-.3-.21-.49Z"/>
</svg>