<?xml version="1.0" encoding="UTF-8"?>
<svg xmlns="http://www.w3.org/2000/svg" version="1.1" viewBox="0 0 30 30">
<path fill="black" d="M6.46,19.56c0-.85.2-1.64.59-2.38s.94-1.35,1.65-1.84V5.42c0-.8.27-1.48.82-2.03s1.23-.84,2.03-.84,1.49.28,2.04.83c.55.56.83,1.23.83,2.03v9.92c.71.49,1.25,1.11,1.64,1.84s.58,1.53.58,2.38c0,.92-.23,1.78-.68,2.56s-1.07,1.4-1.85,1.85-1.63.68-2.56.68-1.77-.23-2.55-.68-1.4-1.07-1.86-1.85-.68-1.63-.68-2.55ZM8.22,19.56c0,.93.33,1.73.98,2.39s1.44.99,2.36.99,1.73-.33,2.4-1,1.01-1.46,1.01-2.37c0-.62-.16-1.2-.48-1.73-.32-.53-.76-.94-1.32-1.23l-.28-.14c-.1-.04-.15-.14-.15-.29V5.42c0-.32-.11-.59-.34-.81-.23-.21-.51-.32-.85-.32-.32,0-.6.11-.83.32s-.34.48-.34.81v10.74c0,.15-.05.25-.14.29l-.27.14c-.55.29-.98.7-1.29,1.23-.31.53-.46,1.1-.46,1.74ZM9,19.56c0,.71.24,1.32.73,1.82s1.07.75,1.76.75,1.28-.25,1.79-.75c.51-.5.76-1.11.76-1.81,0-.63-.22-1.19-.65-1.67s-.96-.77-1.58-.85v-7.36c0-.06-.03-.13-.1-.19-.07-.07-.14-.1-.22-.1-.09,0-.16.03-.21.08-.05.06-.08.12-.08.21v7.34c-.61.09-1.13.37-1.56.85-.43.49-.64,1.04-.64,1.68ZM15.89,15c0,.18.06.33.18.44l1.86,1.81c.11.12.25.18.41.18s.31-.06.43-.17.18-.26.18-.43-.06-.31-.18-.43l-.79-.79h4.98c.17,0,.31-.06.42-.18s.16-.27.16-.44-.05-.31-.16-.44-.25-.18-.42-.19h-4.98l.79-.8c.12-.12.18-.26.18-.42,0-.17-.06-.31-.18-.43s-.26-.18-.44-.18c-.15,0-.3.07-.41.2l-1.86,1.81c-.12.12-.17.26-.17.44Z"/>
</svg>