<?xml version="1.0" encoding="UTF-8"?>
<svg xmlns="http://www.w3.org/2000/svg" version="1.1" viewBox="0 0 30 30">
<path fill="black" d="M14.63,14.41c0-.19.07-.36.2-.5s.29-.21.48-.21h2.23l-2.28-2.28c-.14-.12-.21-.28-.21-.47s.07-.35.21-.49c.14-.14.3-.21.49-.21s.35.07.49.21l2.27,2.27v-3.21c0-.19.07-.36.21-.5s.3-.21.5-.21.35.07.48.21c.13.14.2.3.2.5v3.23l2.29-2.3c.14-.14.3-.21.48-.21s.35.07.49.21c.12.14.18.3.18.49s-.06.35-.18.47l-2.28,2.28h3.23c.18,0,.34.07.47.21s.2.3.2.5c0,.18-.07.34-.2.47-.13.13-.29.2-.47.2h-3.23l2.29,2.29c.12.12.18.28.18.47s-.06.35-.18.49c-.14.14-.31.21-.49.21s-.35-.07-.48-.21l-2.29-2.3v3.24c0,.19-.07.36-.2.49s-.29.2-.48.2-.36-.07-.5-.2c-.14-.13-.21-.3-.21-.49v-3.22l-1.87,1.87c-.14.14-.3.21-.49.21s-.35-.07-.49-.21-.21-.3-.21-.49.07-.34.21-.47l1.9-1.89h-2.24c-.19,0-.35-.07-.48-.2-.16-.11-.22-.27-.22-.45ZM13.64,9.54c0-.18.07-.35.21-.48.12-.14.28-.21.47-.21s.35.07.49.21c.14.14.21.3.21.48s-.07.35-.21.49c-.14.14-.3.21-.49.21s-.35-.07-.47-.21c-.14-.14-.21-.31-.21-.49ZM18.49,7.54c0-.19.07-.36.21-.49s.3-.2.5-.2.35.07.48.2c.13.13.2.3.2.49,0,.18-.07.34-.2.47s-.29.2-.48.2-.36-.07-.5-.2-.21-.29-.21-.47ZM23.36,19.25c0-.18.07-.35.21-.48.12-.14.28-.21.47-.21s.35.07.49.21.21.3.21.48-.07.35-.21.48c-.14.14-.3.21-.49.21s-.35-.07-.47-.21c-.14-.13-.21-.29-.21-.48ZM23.36,9.54c0-.18.07-.35.21-.48.12-.14.28-.21.47-.21s.35.07.49.21.21.3.21.48-.07.35-.21.49c-.14.14-.3.21-.49.21s-.35-.07-.47-.21c-.14-.14-.21-.31-.21-.49ZM25.36,14.41c0-.19.07-.36.2-.5.13-.14.3-.21.49-.21.18,0,.34.07.47.21s.2.3.2.5c0,.18-.07.34-.2.47-.13.13-.29.2-.47.2-.19,0-.36-.07-.49-.2-.13-.13-.2-.29-.2-.47ZM3.49,18.46c.14.13.3.2.5.2h8.37c.6,0,1.12-.22,1.55-.65s.65-.95.65-1.55-.21-1.11-.64-1.53c-.43-.42-.95-.63-1.56-.63s-1.08.22-1.52.64c-.15.13-.22.29-.22.49,0,.18.07.34.21.47s.3.2.5.2.34-.06.46-.2c.15-.15.34-.22.57-.22s.42.08.57.22c.15.15.23.33.23.56s-.08.42-.23.57-.34.23-.57.23H3.99c-.2,0-.36.07-.49.22-.15.13-.22.29-.22.48s.07.36.21.49ZM3.49,21.02c.14.13.3.2.5.2h12.53c.22,0,.41.08.57.22.15.15.23.33.23.56s-.08.41-.23.57c-.15.15-.34.23-.57.23s-.4-.08-.54-.24c-.14-.12-.3-.19-.49-.19s-.36.06-.49.19-.2.29-.2.49c0,.22.07.4.21.52.41.41.91.62,1.51.62s1.12-.22,1.56-.64.65-.95.65-1.54-.22-1.11-.65-1.53c-.43-.43-.95-.64-1.56-.64H3.99c-.19,0-.36.06-.49.2-.15.14-.22.29-.22.47,0,.19.07.36.21.5Z"/>
</svg>